<?xml version="1.0" encoding="UTF-8"?>
<!DOCTYPE svg PUBLIC "-//W3C//DTD SVG 1.1//EN" "http://www.w3.org/Graphics/SVG/1.1/DTD/svg11.dtd">
<!-- Creator: CorelDRAW X6 -->
<svg xmlns="http://www.w3.org/2000/svg" xml:space="preserve" width="210mm" height="297mm" version="1.1" style="shape-rendering:geometricPrecision; text-rendering:geometricPrecision; image-rendering:optimizeQuality; fill-rule:evenodd; clip-rule:evenodd"
viewBox="0 0 21000 29700"
 xmlns:xlink="http://www.w3.org/1999/xlink">
 <defs>
  <style type="text/css">
   <![CDATA[
    .fil1 {fill:#151A5E}
    .fil0 {fill:#151A5E;fill-rule:nonzero}
   ]]>
  </style>
 </defs>
 <g id="图层_x0020_1">
  <metadata id="CorelCorpID_0Corel-Layer"/>
  <g id="_909006816">
   <path class="fil0" d="M6884 7741c-13,-109 -58,-172 -137,-187 -78,-16 -122,-46 -133,-90 0,-31 10,-52 31,-62 21,-10 44,-14 70,-12 23,0 48,4 74,12 23,8 47,19 70,35l0 -140c-26,-13 -53,-21 -82,-23 -29,-5 -56,-7 -82,-4 -62,0 -114,15 -156,47 -44,34 -66,83 -66,148 10,104 57,165 140,183 81,18 128,48 140,90 -3,26 -13,44 -31,55 -18,13 -39,20 -62,20 -31,-3 -62,-9 -94,-20 -29,-8 -57,-17 -86,-27l0 137c29,13 57,22 86,27 31,5 62,8 94,8 62,0 115,-16 156,-47 42,-31 64,-81 66,-148zm282 195l0 -117c-26,0 -48,-4 -66,-12 -16,-8 -23,-25 -23,-51l0 -133 90 0 0 -113 -90 -4 0 -183 -125 0 0 453c0,47 18,84 55,113 36,29 79,44 129,47l31 0zm512 0l0 -230c-3,-62 -27,-113 -74,-152 -44,-36 -95,-55 -152,-55 -65,0 -117,22 -156,66 -42,42 -62,94 -62,156 0,60 18,111 55,152 39,42 90,64 152,66 18,0 38,-4 59,-12 18,-5 36,-14 55,-27l0 35 125 0zm-121 -207c-3,26 -14,48 -35,66 -23,18 -47,29 -70,31 -29,-2 -51,-13 -66,-31 -18,-18 -27,-40 -27,-66 0,-29 9,-52 27,-70 18,-21 42,-31 70,-31 26,0 48,10 66,31 21,18 32,42 35,70zm405 -117l0 -113 -27 0c-44,0 -86,13 -125,39 -39,26 -60,62 -62,109l0 289 129 0 0 -269c0,-23 9,-39 27,-47 18,-8 38,-10 58,-8zm528 324l-172 -300c34,-18 62,-40 86,-66 23,-28 36,-62 39,-101 -3,-55 -23,-100 -62,-136 -36,-36 -81,-55 -133,-55l-140 0c-18,0 -35,9 -51,27 -18,18 -27,38 -27,58l0 574 137 0 0 -534 90 0c13,8 23,18 31,31 8,10 13,25 16,43 -8,36 -30,60 -66,70 -39,8 -61,31 -66,70 3,26 25,77 66,152 42,78 72,134 90,168l164 0zm204 -546l-4 -31c-5,-10 -13,-18 -23,-23 -13,-8 -22,-12 -27,-12l-35 0c-3,0 -5,0 -8,0 -3,0 -4,1 -4,4 -10,5 -19,14 -27,27 -5,10 -8,23 -8,39 0,18 5,34 16,47 13,13 30,21 51,23 21,-3 38,-10 51,-23 10,-16 17,-32 20,-51zm0 546l0 -429 -125 0 0 429 125 0zm514 -176c0,-73 -19,-134 -58,-183 -36,-52 -92,-78 -168,-78 -60,0 -111,19 -152,58 -44,39 -66,88 -66,148l0 417 133 0 0 -215c16,8 31,14 47,20 16,5 34,8 55,8 44,-3 90,-21 137,-55 44,-34 69,-74 74,-121zm-125 -31c-3,26 -14,47 -35,62 -18,18 -40,29 -66,31 -29,-3 -51,-13 -66,-31 -18,-18 -27,-40 -27,-66 0,-29 8,-52 23,-70 16,-18 36,-27 62,-27 29,0 53,9 74,27 21,16 32,40 35,74zm639 31c0,-73 -19,-134 -58,-183 -36,-52 -92,-78 -168,-78 -60,0 -111,19 -152,58 -44,39 -66,88 -66,148l0 417 133 0 0 -215c16,8 31,14 47,20 16,5 34,8 55,8 44,-3 90,-21 137,-55 44,-34 69,-74 74,-121zm-125 -31c-3,26 -14,47 -35,62 -18,18 -40,29 -66,31 -29,-3 -51,-13 -66,-31 -18,-18 -27,-40 -27,-66 0,-29 8,-52 23,-70 16,-18 36,-27 62,-27 29,0 53,9 74,27 21,16 32,40 35,74zm323 207l0 -663 -129 0 0 663 129 0zm508 -254c-5,-52 -29,-96 -70,-133 -44,-36 -91,-55 -140,-55 -68,0 -124,19 -168,59 -42,42 -62,98 -62,168 0,65 21,116 62,152 42,39 95,60 160,62 44,-3 86,-16 125,-39 36,-23 64,-56 82,-98l-136 0c-10,10 -22,19 -35,27 -13,5 -26,9 -39,12 -26,-3 -47,-10 -62,-23 -18,-16 -31,-34 -39,-55 47,0 95,0 144,0 49,3 99,0 148,-8 13,-10 21,-21 23,-31 5,-13 8,-26 8,-39zm-109 0l-218 0c8,-23 19,-43 35,-58 16,-13 36,-20 62,-20 26,0 49,6 70,20 21,13 38,32 51,58z"/>
   <path class="fil1" d="M10800 6694l-367 0c22,24 220,119 267,148 91,55 176,120 246,177l166 150c59,68 216,215 253,306l-113 -6c-96,-146 -46,-61 -133,-159 -25,-29 -37,-53 -64,-79 -347,-332 -766,-573 -1233,-679 -332,-75 -684,-112 -995,25 -231,102 -456,272 -466,629 102,-267 212,-324 482,-414 459,-153 1144,79 1548,343 110,72 315,251 398,355l112 155c-338,324 -178,940 191,1055 -77,242 -289,435 -566,472 -375,50 -742,-144 -844,-161 162,141 649,255 896,266 377,17 781,-144 942,-528 49,-118 139,-121 215,-223 264,-354 146,-942 -356,-1050l-139 -443 181 -165c27,-23 163,-137 175,-163l-474 -1c-28,-60 -52,-200 -70,-272 -14,-59 -51,-243 -78,-279l-171 539z"/>
   <path class="fil0" d="M8578 8670l15 -35 183 0 0 48 -374 0 0 94 374 0 0 40 -412 0 0 93 1000 0 0 -93 -365 0 0 -40 341 0 0 -94 -341 0 0 -48 333 0 0 -93 -333 0 0 -48 83 0 49 -93 -514 0 0 -28 514 0 0 121 203 0 0 -335 -920 0 0 335 361 0 0 48 -141 0 15 -34 -205 0 -42 81 -43 0 37 79 180 0zm40 -417l514 0 0 27 -514 0 0 -27zm1527 643l109 0 -2 -11 11 25 167 0 0 -739 -532 0 0 81 375 0 0 605 -25 0 -20 -143 -106 0 23 181zm-151 -617l0 52 -154 0 0 78 154 0 0 31 -154 0 0 252 154 0 0 203 112 0 0 -203 24 0 37 -53 -61 0 0 -145 61 0 0 198 94 0 0 -252 -155 0 0 -31 155 0 0 -78 -155 0 0 -52 -112 0zm-167 631l0 -604 -157 0 0 604 157 0zm-223 -5l49 -306 -161 0 -34 217 -37 0 25 90 157 0zm20 -572l28 -64 -26 0 -32 -106 -161 0 50 170 140 0zm0 220l28 -64 -26 0 -32 -105 -161 0 50 169 140 0zm61 -278l144 0 28 -74 -38 0 -18 -45 -164 0 47 119zm294 440l-106 0 -26 181 108 0 24 -181zm-47 -75l0 -145 61 0 0 145 -61 0zm185 -128l-10 106 47 0 10 -106 -47 0zm-183 0l10 106 47 0 -10 -106 -47 0z"/>
  </g>
 </g>
</svg>
